<svg width="17" height="16" viewBox="0 0 17 16" fill="none" xmlns="http://www.w3.org/2000/svg">
<path d="M15.8327 7.99984C15.8327 12.0499 12.5494 15.3332 8.49935 15.3332C4.44926 15.3332 1.16602 12.0499 1.16602 7.99984C1.16602 3.94975 4.44926 0.666504 8.49935 0.666504C12.5494 0.666504 15.8327 3.94975 15.8327 7.99984ZM2.5039 7.99984C2.5039 11.311 5.18816 13.9953 8.49935 13.9953C11.8105 13.9953 14.4948 11.311 14.4948 7.99984C14.4948 4.68864 11.8105 2.00439 8.49935 2.00439C5.18816 2.00439 2.5039 4.68864 2.5039 7.99984Z" fill="#0D0D0D"/>
<path d="M8.50065 3.3335C8.13245 3.3335 7.83398 3.63197 7.83398 4.00016V8.3113C7.83398 8.3113 7.83398 8.4851 7.91845 8.61583C7.97498 8.7267 8.06312 8.82303 8.17892 8.8899L11.2588 10.6681C11.5777 10.8522 11.9854 10.7429 12.1695 10.424C12.3535 10.1052 12.2443 9.69743 11.9255 9.51336L9.16732 7.92096V4.00016C9.16732 3.63198 8.86885 3.3335 8.50065 3.3335Z" fill="#0D0D0D"/>
</svg>
