<svg width="32" height="33" viewBox="0 0 32 33" fill="none" xmlns="http://www.w3.org/2000/svg">
<path d="M9.96 3.54492H20.04C23.88 3.54492 27 6.66492 27 10.5049V20.5849C27 22.4308 26.2667 24.2011 24.9615 25.5064C23.6562 26.8116 21.8859 27.5449 20.04 27.5449H9.96C6.12 27.5449 3 24.4249 3 20.5849V10.5049C3 8.65902 3.73328 6.88871 5.03854 5.58346C6.34379 4.27821 8.11409 3.54492 9.96 3.54492ZM9.72 5.94492C8.57427 5.94492 7.47546 6.40006 6.6653 7.21022C5.85514 8.02038 5.4 9.11919 5.4 10.2649V20.8249C5.4 23.2129 7.332 25.1449 9.72 25.1449H20.28C21.4257 25.1449 22.5245 24.6898 23.3347 23.8796C24.1449 23.0695 24.6 21.9707 24.6 20.8249V10.2649C24.6 7.87692 22.668 5.94492 20.28 5.94492H9.72ZM21.3 7.74492C21.6978 7.74492 22.0794 7.90296 22.3607 8.18426C22.642 8.46557 22.8 8.8471 22.8 9.24492C22.8 9.64275 22.642 10.0243 22.3607 10.3056C22.0794 10.5869 21.6978 10.7449 21.3 10.7449C20.9022 10.7449 20.5206 10.5869 20.2393 10.3056C19.958 10.0243 19.8 9.64275 19.8 9.24492C19.8 8.8471 19.958 8.46557 20.2393 8.18426C20.5206 7.90296 20.9022 7.74492 21.3 7.74492ZM15 9.54492C16.5913 9.54492 18.1174 10.1771 19.2426 11.3023C20.3679 12.4275 21 13.9536 21 15.5449C21 17.1362 20.3679 18.6623 19.2426 19.7876C18.1174 20.9128 16.5913 21.5449 15 21.5449C13.4087 21.5449 11.8826 20.9128 10.7574 19.7876C9.63214 18.6623 9 17.1362 9 15.5449C9 13.9536 9.63214 12.4275 10.7574 11.3023C11.8826 10.1771 13.4087 9.54492 15 9.54492ZM15 11.9449C14.0452 11.9449 13.1295 12.3242 12.4544 12.9993C11.7793 13.6745 11.4 14.5901 11.4 15.5449C11.4 16.4997 11.7793 17.4154 12.4544 18.0905C13.1295 18.7656 14.0452 19.1449 15 19.1449C15.9548 19.1449 16.8705 18.7656 17.5456 18.0905C18.2207 17.4154 18.6 16.4997 18.6 15.5449C18.6 14.5901 18.2207 13.6745 17.5456 12.9993C16.8705 12.3242 15.9548 11.9449 15 11.9449Z" fill="white"/>
</svg>
