<svg width="30" height="31" viewBox="0 0 30 31" fill="none" xmlns="http://www.w3.org/2000/svg">
<rect y="0.544922" width="30" height="30" rx="15" fill="white"/>
<path d="M8 13.6767C8 18.3245 12.2445 22.168 14.1232 23.6416C14.3921 23.8525 14.5281 23.9592 14.7287 24.0133C14.8849 24.0555 15.1148 24.0555 15.271 24.0133C15.472 23.9591 15.6071 23.8535 15.877 23.6418C17.7557 22.1682 22 18.3249 22 13.6771C22 11.9182 21.2625 10.2311 19.9498 8.98738C18.637 7.74364 16.8566 7.04492 15.0001 7.04492C13.1436 7.04492 11.363 7.74375 10.0503 8.98748C8.7375 10.2312 8 11.9178 8 13.6767Z" stroke="#151515" stroke-width="2" stroke-linecap="round" stroke-linejoin="round"/>
<path d="M13 12.7926C13 13.8507 13.8955 14.7085 15 14.7085C16.1046 14.7085 17.0001 13.8507 17.0001 12.7926C17.0001 11.7345 16.1046 10.8767 15 10.8767C13.8955 10.8767 13 11.7345 13 12.7926Z" stroke="#151515" stroke-width="2" stroke-linecap="round" stroke-linejoin="round"/>
</svg>
