<svg width="30" height="31" viewBox="0 0 30 31" fill="none" xmlns="http://www.w3.org/2000/svg">
<rect y="0.544922" width="30" height="30" rx="15" fill="white"/>
<path d="M7.88889 10.4021L13.3179 14.3554L13.3197 14.3569C13.9225 14.7832 14.2241 14.9964 14.5545 15.0788C14.8464 15.1516 15.1533 15.1516 15.4453 15.0788C15.7759 14.9964 16.0784 14.7825 16.6823 14.3554C16.6823 14.3554 20.1645 11.7786 22.1111 10.4021M7 18.8022V12.2879C7 11.3279 7 10.8475 7.19377 10.4807C7.36421 10.1582 7.63598 9.89612 7.97049 9.73177C8.35077 9.54492 8.84897 9.54492 9.84462 9.54492H20.1557C21.1514 9.54492 21.6485 9.54492 22.0288 9.73177C22.3633 9.89612 22.636 10.1582 22.8064 10.4807C23 10.8471 23 11.3269 23 12.2851V18.8051C23 19.7633 23 20.2425 22.8064 20.6088C22.636 20.9314 22.3633 21.1939 22.0288 21.3583C21.6489 21.5449 21.152 21.5449 20.1583 21.5449H9.8417C8.84799 21.5449 8.3504 21.5449 7.97049 21.3583C7.63598 21.1939 7.36421 20.9314 7.19377 20.6088C7 20.2421 7 19.7623 7 18.8022Z" stroke="#151515" stroke-width="2" stroke-linecap="round" stroke-linejoin="round"/>
</svg>
