<svg width="36" height="36" viewBox="0 0 36 36" fill="none" xmlns="http://www.w3.org/2000/svg">
<g clip-path="url(#paint0_diamond_2119_683_clip_path)" data-figma-skip-parse="true"><g transform="matrix(0 0.0143044 -0.0176124 0 17.6124 17.715)"><rect x="0" y="0" width="1069.91" height="1056.78" fill="url(#paint0_diamond_2119_683)" opacity="1" shape-rendering="crispEdges"/><rect x="0" y="0" width="1069.91" height="1056.78" transform="scale(1 -1)" fill="url(#paint0_diamond_2119_683)" opacity="1" shape-rendering="crispEdges"/><rect x="0" y="0" width="1069.91" height="1056.78" transform="scale(-1 1)" fill="url(#paint0_diamond_2119_683)" opacity="1" shape-rendering="crispEdges"/><rect x="0" y="0" width="1069.91" height="1056.78" transform="scale(-1)" fill="url(#paint0_diamond_2119_683)" opacity="1" shape-rendering="crispEdges"/></g></g><path d="M8.64879 3.41064C6.02625 3.41064 3.88199 5.55491 3.88199 8.17744V9.27747C3.88199 11.9 6.03422 14.0443 8.64879 14.0443C11.2713 14.0443 13.4156 11.892 13.4156 9.27747V8.17744C13.4156 5.55491 11.2713 3.41064 8.64879 3.41064ZM26.5841 3.41064C23.9615 3.41064 21.8173 5.55491 21.8173 8.17744V9.27747C21.8173 11.9 23.9615 14.0443 26.5841 14.0443C29.2066 14.0443 31.3509 11.892 31.3509 9.27747V8.17744C31.3509 5.55491 29.2066 3.41064 26.5841 3.41064ZM10.8488 27.6432C11.9728 27.6352 12.5627 26.2642 11.7496 25.4511C11.5184 25.2199 11.1996 25.0765 10.8409 25.0765H9.17489C8.91184 25.0765 8.76039 24.7656 8.92778 24.5583L9.18286 24.2395C9.38214 23.9924 9.19083 23.6177 8.85604 23.6576C8.76039 23.6655 8.6727 23.7134 8.60893 23.7931L7.68427 24.9409C7.62847 25.0207 7.53282 25.0765 7.42122 25.0765H4.98999C4.28852 25.0765 3.70662 25.6584 3.70662 26.3598V27.6512H10.8488V27.6432ZM6.66395 24.4308H7.27774L8.12269 23.3786C8.6727 22.6931 9.79665 23.0119 9.8923 23.8967C9.90824 24.08 9.88433 24.2634 9.80462 24.4308H10.8409C12.5308 24.4308 13.4156 26.4953 12.196 27.707C11.8532 28.0497 11.359 28.2729 10.8329 28.2729H6.65598V32.0035H9.97998C10.4503 29.8672 13.0649 28.9903 14.7229 30.465C15.1693 30.8636 15.4961 31.3976 15.6316 32.0035H17.8157V28.7352C17.8157 28.4881 18.0867 28.3367 18.302 28.4642C19.7687 29.3889 21.7376 28.3447 21.7376 26.5671C21.7376 25.0685 20.3027 24.0003 18.8759 24.4148C18.4454 24.5424 18.3099 24.7177 18.1346 24.7177C17.9592 24.7177 17.8157 24.5743 17.8157 24.3989V20.8437H13.9018C13.6468 20.8437 13.4873 20.5488 13.6468 20.3415C14.7707 18.827 13.7025 16.619 11.7655 16.619C10.1713 16.619 9.05532 18.1813 9.54954 19.6799C9.72491 20.214 9.9481 20.3176 9.9481 20.5249C9.9481 20.7002 9.80462 20.8437 9.62925 20.8437H6.64801V24.4308H6.66395ZM3.06892 26.3598V19.1937C3.06892 18.7712 3.70662 18.7712 3.70662 19.1937V24.933C4.04939 24.6221 4.49578 24.4388 4.98999 24.4388H6.02625V20.5329C6.02625 20.3575 6.16973 20.214 6.3451 20.214H9.08721C8.17051 18.269 9.58939 15.9813 11.7815 15.9813C13.9736 15.9813 15.3845 18.261 14.4758 20.214H17.2976V19.6002C17.2976 16.5154 14.7707 13.9805 11.6779 13.9805H11.3271C10.538 14.4349 9.62128 14.6979 8.64879 14.6979C7.6763 14.6979 6.75961 14.4349 5.97045 13.9805H5.61972C2.53485 13.9805 0 16.5074 0 19.6002V25.8257C0 26.8301 0.821037 27.6432 1.81744 27.6432H3.06095V26.3598H3.06892ZM30.2668 24.4308C30.753 24.4388 31.1914 24.6221 31.5262 24.925V19.1857C31.5262 18.7632 32.1639 18.7632 32.1639 19.1857V27.6352H33.4074C34.4118 27.6352 35.2249 26.8142 35.2249 25.8178V19.5922C35.2249 16.5074 32.698 13.9725 29.6052 13.9725H29.2544C28.4653 14.4269 27.5486 14.6899 26.5761 14.6899C25.6036 14.6899 24.6869 14.4269 23.8978 13.9725H23.547C20.4701 13.9725 17.9512 16.4675 17.9273 19.5922V20.206H21.4506C20.5419 18.1893 22.0086 15.8617 24.2565 15.8617C26.5043 15.8617 27.9711 18.1893 27.0623 20.206H29.94C30.1153 20.206 30.2588 20.3495 30.2588 20.5249V24.4308H30.2668ZM27.9551 24.4308H29.6291V20.8437H26.5203C26.2652 20.8437 26.1138 20.5568 26.2572 20.3415C27.3732 18.7473 26.2493 16.4994 24.2565 16.4994C22.6064 16.4994 21.4346 18.1096 21.9289 19.672C22.0883 20.1901 22.3115 20.3256 22.3115 20.5249C22.3115 20.7002 22.168 20.8437 21.9926 20.8437H18.4534V23.8887C20.3187 23.1554 22.3753 24.5344 22.3753 26.575C22.3753 28.6157 20.3187 29.9867 18.4534 29.2614V32.0194H29.6211V28.2889H24.376C22.6861 28.2889 21.8013 26.2243 23.0209 25.0127C23.3717 24.6619 23.8499 24.4467 24.376 24.4467H25.4282C25.1014 23.7532 25.6594 22.9402 26.4406 23.0278C26.7036 23.0597 26.9587 23.1873 27.1261 23.4105L27.9551 24.4308ZM30.2429 25.0685H27.8037C27.6921 25.0685 27.5964 25.0127 27.5406 24.933L26.6159 23.7851C26.4167 23.538 26.0101 23.6496 25.9703 23.9685C25.9623 24.0641 25.9862 24.1598 26.042 24.2315L26.2971 24.5504C26.4645 24.7576 26.3051 25.0685 26.05 25.0685H24.384C23.2601 25.0685 22.6622 26.4475 23.4753 27.2606C23.7064 27.4917 24.0253 27.6352 24.384 27.6352H31.5262V26.3519C31.5262 25.6504 30.9523 25.0685 30.2429 25.0685Z" data-figma-gradient-fill="{&#34;type&#34;:&#34;GRADIENT_DIAMOND&#34;,&#34;stops&#34;:[{&#34;color&#34;:{&#34;r&#34;:1.0,&#34;g&#34;:0.95686274766921997,&#34;b&#34;:0.30980393290519714,&#34;a&#34;:1.0},&#34;position&#34;:0.0},{&#34;color&#34;:{&#34;r&#34;:1.0,&#34;g&#34;:0.60000002384185791,&#34;b&#34;:0.0,&#34;a&#34;:1.0},&#34;position&#34;:1.0}],&#34;stopsVar&#34;:[{&#34;color&#34;:{&#34;r&#34;:1.0,&#34;g&#34;:0.95686274766921997,&#34;b&#34;:0.30980393290519714,&#34;a&#34;:1.0},&#34;position&#34;:0.0},{&#34;color&#34;:{&#34;r&#34;:1.0,&#34;g&#34;:0.60000002384185791,&#34;b&#34;:0.0,&#34;a&#34;:1.0},&#34;position&#34;:1.0}],&#34;transform&#34;:{&#34;m00&#34;:2.1569018493055323e-15,&#34;m01&#34;:-35.224880218505859,&#34;m02&#34;:35.224880218505859,&#34;m10&#34;:28.608751296997070,&#34;m11&#34;:1.7517808137103774e-15,&#34;m12&#34;:3.410644531250},&#34;opacity&#34;:1.0,&#34;blendMode&#34;:&#34;NORMAL&#34;,&#34;visible&#34;:true}"/>
<defs>
<clipPath id="paint0_diamond_2119_683_clip_path"><path d="M8.64879 3.41064C6.02625 3.41064 3.88199 5.55491 3.88199 8.17744V9.27747C3.88199 11.9 6.03422 14.0443 8.64879 14.0443C11.2713 14.0443 13.4156 11.892 13.4156 9.27747V8.17744C13.4156 5.55491 11.2713 3.41064 8.64879 3.41064ZM26.5841 3.41064C23.9615 3.41064 21.8173 5.55491 21.8173 8.17744V9.27747C21.8173 11.9 23.9615 14.0443 26.5841 14.0443C29.2066 14.0443 31.3509 11.892 31.3509 9.27747V8.17744C31.3509 5.55491 29.2066 3.41064 26.5841 3.41064ZM10.8488 27.6432C11.9728 27.6352 12.5627 26.2642 11.7496 25.4511C11.5184 25.2199 11.1996 25.0765 10.8409 25.0765H9.17489C8.91184 25.0765 8.76039 24.7656 8.92778 24.5583L9.18286 24.2395C9.38214 23.9924 9.19083 23.6177 8.85604 23.6576C8.76039 23.6655 8.6727 23.7134 8.60893 23.7931L7.68427 24.9409C7.62847 25.0207 7.53282 25.0765 7.42122 25.0765H4.98999C4.28852 25.0765 3.70662 25.6584 3.70662 26.3598V27.6512H10.8488V27.6432ZM6.66395 24.4308H7.27774L8.12269 23.3786C8.6727 22.6931 9.79665 23.0119 9.8923 23.8967C9.90824 24.08 9.88433 24.2634 9.80462 24.4308H10.8409C12.5308 24.4308 13.4156 26.4953 12.196 27.707C11.8532 28.0497 11.359 28.2729 10.8329 28.2729H6.65598V32.0035H9.97998C10.4503 29.8672 13.0649 28.9903 14.7229 30.465C15.1693 30.8636 15.4961 31.3976 15.6316 32.0035H17.8157V28.7352C17.8157 28.4881 18.0867 28.3367 18.302 28.4642C19.7687 29.3889 21.7376 28.3447 21.7376 26.5671C21.7376 25.0685 20.3027 24.0003 18.8759 24.4148C18.4454 24.5424 18.3099 24.7177 18.1346 24.7177C17.9592 24.7177 17.8157 24.5743 17.8157 24.3989V20.8437H13.9018C13.6468 20.8437 13.4873 20.5488 13.6468 20.3415C14.7707 18.827 13.7025 16.619 11.7655 16.619C10.1713 16.619 9.05532 18.1813 9.54954 19.6799C9.72491 20.214 9.9481 20.3176 9.9481 20.5249C9.9481 20.7002 9.80462 20.8437 9.62925 20.8437H6.64801V24.4308H6.66395ZM3.06892 26.3598V19.1937C3.06892 18.7712 3.70662 18.7712 3.70662 19.1937V24.933C4.04939 24.6221 4.49578 24.4388 4.98999 24.4388H6.02625V20.5329C6.02625 20.3575 6.16973 20.214 6.3451 20.214H9.08721C8.17051 18.269 9.58939 15.9813 11.7815 15.9813C13.9736 15.9813 15.3845 18.261 14.4758 20.214H17.2976V19.6002C17.2976 16.5154 14.7707 13.9805 11.6779 13.9805H11.3271C10.538 14.4349 9.62128 14.6979 8.64879 14.6979C7.6763 14.6979 6.75961 14.4349 5.97045 13.9805H5.61972C2.53485 13.9805 0 16.5074 0 19.6002V25.8257C0 26.8301 0.821037 27.6432 1.81744 27.6432H3.06095V26.3598H3.06892ZM30.2668 24.4308C30.753 24.4388 31.1914 24.6221 31.5262 24.925V19.1857C31.5262 18.7632 32.1639 18.7632 32.1639 19.1857V27.6352H33.4074C34.4118 27.6352 35.2249 26.8142 35.2249 25.8178V19.5922C35.2249 16.5074 32.698 13.9725 29.6052 13.9725H29.2544C28.4653 14.4269 27.5486 14.6899 26.5761 14.6899C25.6036 14.6899 24.6869 14.4269 23.8978 13.9725H23.547C20.4701 13.9725 17.9512 16.4675 17.9273 19.5922V20.206H21.4506C20.5419 18.1893 22.0086 15.8617 24.2565 15.8617C26.5043 15.8617 27.9711 18.1893 27.0623 20.206H29.94C30.1153 20.206 30.2588 20.3495 30.2588 20.5249V24.4308H30.2668ZM27.9551 24.4308H29.6291V20.8437H26.5203C26.2652 20.8437 26.1138 20.5568 26.2572 20.3415C27.3732 18.7473 26.2493 16.4994 24.2565 16.4994C22.6064 16.4994 21.4346 18.1096 21.9289 19.672C22.0883 20.1901 22.3115 20.3256 22.3115 20.5249C22.3115 20.7002 22.168 20.8437 21.9926 20.8437H18.4534V23.8887C20.3187 23.1554 22.3753 24.5344 22.3753 26.575C22.3753 28.6157 20.3187 29.9867 18.4534 29.2614V32.0194H29.6211V28.2889H24.376C22.6861 28.2889 21.8013 26.2243 23.0209 25.0127C23.3717 24.6619 23.8499 24.4467 24.376 24.4467H25.4282C25.1014 23.7532 25.6594 22.9402 26.4406 23.0278C26.7036 23.0597 26.9587 23.1873 27.1261 23.4105L27.9551 24.4308ZM30.2429 25.0685H27.8037C27.6921 25.0685 27.5964 25.0127 27.5406 24.933L26.6159 23.7851C26.4167 23.538 26.0101 23.6496 25.9703 23.9685C25.9623 24.0641 25.9862 24.1598 26.042 24.2315L26.2971 24.5504C26.4645 24.7576 26.3051 25.0685 26.05 25.0685H24.384C23.2601 25.0685 22.6622 26.4475 23.4753 27.2606C23.7064 27.4917 24.0253 27.6352 24.384 27.6352H31.5262V26.3519C31.5262 25.6504 30.9523 25.0685 30.2429 25.0685Z"/></clipPath><linearGradient id="paint0_diamond_2119_683" x1="0" y1="0" x2="500" y2="500" gradientUnits="userSpaceOnUse">
<stop stop-color="#FFF44F"/>
<stop offset="1" stop-color="#FF9900"/>
</linearGradient>
</defs>
</svg>
