<svg width="30" height="31" viewBox="0 0 30 31" fill="none" xmlns="http://www.w3.org/2000/svg">
<rect y="0.544922" width="30" height="30" rx="15" fill="white"/>
<path d="M12.78 8.66245C12.51 7.9875 11.8563 7.54492 11.1293 7.54492H8.68421C7.75405 7.54492 7 8.29879 7 9.22895C7 17.1353 13.4096 23.5449 21.316 23.5449C22.2461 23.5449 23 22.7908 23 21.8606L23.0004 19.4151C23.0004 18.6882 22.5579 18.0346 21.883 17.7646L19.5395 16.8275C18.9332 16.585 18.2429 16.6942 17.7413 17.1122L17.1365 17.6166C16.4301 18.2053 15.3908 18.1584 14.7406 17.5083L13.0375 15.8036C12.3874 15.1535 12.3393 14.115 12.9279 13.4086L13.4323 12.8039C13.8503 12.3022 13.9604 11.6117 13.7179 11.0054L12.78 8.66245Z" stroke="#151515" stroke-width="2" stroke-linecap="round" stroke-linejoin="round"/>
</svg>
