<svg width="38" height="36" viewBox="0 0 38 36" fill="none" xmlns="http://www.w3.org/2000/svg">
<g clip-path="url(#clip0_2119_974)">
<g clip-path="url(#paint0_diamond_2119_974_clip_path)" data-figma-skip-parse="true"><g transform="matrix(0 0.018 -0.0185 0 19 18)"><rect x="0" y="0" width="1055.56" height="1054.05" fill="url(#paint0_diamond_2119_974)" opacity="1" shape-rendering="crispEdges"/><rect x="0" y="0" width="1055.56" height="1054.05" transform="scale(1 -1)" fill="url(#paint0_diamond_2119_974)" opacity="1" shape-rendering="crispEdges"/><rect x="0" y="0" width="1055.56" height="1054.05" transform="scale(-1 1)" fill="url(#paint0_diamond_2119_974)" opacity="1" shape-rendering="crispEdges"/><rect x="0" y="0" width="1055.56" height="1054.05" transform="scale(-1)" fill="url(#paint0_diamond_2119_974)" opacity="1" shape-rendering="crispEdges"/></g></g><path fill-rule="evenodd" clip-rule="evenodd" d="M9.23555 18.5605C8.68345 18.0018 7.95688 17.654 7.17966 17.5764C6.40243 17.4987 5.62264 17.6961 4.97314 18.1347C4.32364 18.5734 3.84462 19.2262 3.61771 19.982C3.39079 20.7378 3.43002 21.5498 3.72871 22.2797C4.0274 23.0095 4.56707 23.612 5.25576 23.9845C5.94445 24.3571 6.73956 24.4765 7.50559 24.3226C8.27163 24.1687 8.96121 23.751 9.45682 23.1405C9.95244 22.5301 10.2234 21.7647 10.2236 20.9748C10.2245 20.5264 10.1377 20.0822 9.9681 19.6678C9.79852 19.2535 9.54956 18.8772 9.23555 18.5606V18.5605ZM33.5357 18.5605C32.9837 18.0027 32.2576 17.6557 31.4809 17.5786C30.7043 17.5016 29.9253 17.6992 29.2766 18.1378C28.6279 18.5764 28.1497 19.229 27.9233 19.9842C27.6969 20.7395 27.7364 21.5508 28.0351 22.2798C28.3338 23.0089 28.8732 23.6108 29.5614 23.9828C30.2496 24.3548 31.044 24.474 31.8094 24.3201C32.5747 24.1662 33.2636 23.7487 33.7588 23.1387C34.2539 22.5287 34.5246 21.764 34.5248 20.9748C34.5255 20.5263 34.4385 20.0821 34.2687 19.6678C34.099 19.2534 33.8499 18.8771 33.5357 18.5606V18.5605ZM11.1296 30.8645V30.3127C11.1204 29.6347 11.32 28.9705 11.7006 28.4123C12.0813 27.8541 12.6242 27.4294 13.2542 27.1972L17.8293 25.4414C18.2026 25.2943 18.5994 25.2175 19 25.2149V25.2138C19.4006 25.2166 19.7973 25.2938 20.1703 25.4414L24.745 27.1972C25.3751 27.4293 25.9181 27.8539 26.2988 28.4121C26.6795 28.9704 26.879 29.6346 26.8696 30.3127V35.2659C26.8688 35.4603 26.7922 35.6465 26.6563 35.7839C26.5205 35.9214 26.3365 35.9991 26.1443 36H11.8559C11.6637 35.9988 11.4797 35.9211 11.3438 35.7837C11.2078 35.6463 11.1309 35.4603 11.1296 35.2659V30.8645ZM26.4409 26.9732C26.7204 27.2155 26.968 27.493 27.1776 27.7991C27.6788 28.5392 27.9448 29.4162 27.9401 30.3132V33.9815H37.0018C37.1338 33.9809 37.2601 33.9275 37.3534 33.833C37.4467 33.7386 37.4993 33.6107 37.4997 33.4772V29.4194C37.5073 28.884 37.3499 28.3594 37.0493 27.9186C36.7488 27.4777 36.32 27.1424 35.8225 26.9592L32.0756 25.5213C31.7805 25.4043 31.4668 25.3429 31.1499 25.3401V25.3427C30.8334 25.3447 30.5199 25.4053 30.2249 25.5213L26.478 26.9592L26.4409 26.9732ZM11.5591 26.9732L11.522 26.9592L7.77508 25.5213C7.48023 25.4044 7.16676 25.3431 6.85009 25.3401V25.3427C6.53337 25.3447 6.21967 25.4052 5.92446 25.5213L2.17754 26.9592C1.67989 27.1422 1.25096 27.4774 0.950376 27.9183C0.649789 28.3592 0.492468 28.8839 0.500277 29.4194V33.4772C0.500221 33.5432 0.513098 33.6085 0.538166 33.6695C0.563234 33.7304 0.599995 33.7857 0.646324 33.8322C0.739408 33.9269 0.865843 33.9804 0.997891 33.981H10.0599V30.3127C10.0547 29.4156 10.3208 28.5384 10.8224 27.7986C11.0317 27.4923 11.2793 27.2147 11.5591 26.9727L11.5591 26.9732ZM21.9961 16.7978C21.3029 16.0963 20.3906 15.6596 19.4147 15.5622C18.4388 15.4647 17.4597 15.7126 16.6443 16.2634C15.8288 16.8142 15.2274 17.634 14.9426 18.5831C14.6578 19.5321 14.7072 20.5516 15.0824 21.4679C15.4576 22.3843 16.1354 23.1406 17.0002 23.6082C17.8651 24.0757 18.8634 24.2255 19.8252 24.032C20.787 23.8385 21.6527 23.3137 22.2747 22.547C22.8968 21.7803 23.2367 20.8191 23.2366 19.8274C23.2373 19.2647 23.128 18.7074 22.9152 18.1875C22.7023 17.6677 22.3899 17.1955 21.9961 16.798V16.7978ZM18.4653 7.06203V8.15955C17.9823 8.17969 17.5257 8.3879 17.191 8.74063C16.8563 9.09336 16.6695 9.5633 16.6695 10.0522C16.6695 10.541 16.8563 11.011 17.191 11.3637C17.5257 11.7164 17.9823 11.9247 18.4653 11.9448V13.0428H12.5518V7.06203H14.2509V7.06101C14.3366 7.06105 14.4211 7.04016 14.4972 7.00011C14.5733 6.96005 14.6387 6.90202 14.6878 6.83093C14.737 6.75985 14.7684 6.67781 14.7795 6.5918C14.7906 6.50579 14.781 6.41834 14.7516 6.33688C14.7361 6.29276 14.7248 6.2473 14.7175 6.20108C14.7096 6.15451 14.7054 6.10736 14.7051 6.0601C14.7041 5.9528 14.7241 5.84636 14.764 5.74693C14.8039 5.6475 14.8629 5.55705 14.9376 5.48082C15.0123 5.40458 15.1011 5.34406 15.1991 5.30276C15.297 5.26146 15.402 5.2402 15.5081 5.2402C15.6143 5.2402 15.7193 5.26146 15.8172 5.30276C15.9152 5.34406 16.004 5.40458 16.0787 5.48082C16.1534 5.55705 16.2124 5.6475 16.2523 5.74693C16.2922 5.84636 16.3122 5.9528 16.3112 6.0601C16.311 6.10734 16.3071 6.15449 16.2993 6.20108C16.2921 6.23974 16.2843 6.27578 16.2751 6.30764C16.2455 6.37522 16.2304 6.44833 16.2306 6.52222C16.2309 6.66559 16.2874 6.80299 16.3878 6.90422C16.4882 7.00544 16.6243 7.0622 16.766 7.06203H18.4653ZM18.4653 0H12.5518V5.98022H13.637C13.6569 5.49182 13.8628 5.03012 14.2115 4.69167C14.5603 4.35322 15.0249 4.16423 15.5082 4.16423C15.9915 4.16423 16.4561 4.35322 16.8048 4.69167C17.1536 5.03012 17.3594 5.49182 17.3793 5.98022H18.4653V4.26271H18.4663C18.4665 4.17602 18.4873 4.09065 18.5269 4.01379C18.5666 3.93694 18.6239 3.87085 18.6941 3.8211C18.7643 3.77134 18.8453 3.73939 18.9303 3.72792C19.0152 3.71645 19.1017 3.72581 19.1823 3.7552C19.226 3.77119 19.2711 3.78291 19.317 3.79021C19.3631 3.79792 19.4097 3.80176 19.4564 3.80169C19.6693 3.80169 19.8734 3.71618 20.0239 3.56397C20.1744 3.41176 20.2589 3.20533 20.2589 2.99007C20.2589 2.77482 20.1744 2.56838 20.0239 2.41617C19.8734 2.26397 19.6693 2.17846 19.4564 2.17846C19.4097 2.17855 19.3631 2.18256 19.317 2.19044C19.2814 2.19672 19.246 2.20492 19.2112 2.215C19.1446 2.24422 19.0727 2.25916 19.0001 2.25885C18.8583 2.25885 18.7222 2.20187 18.622 2.10045C18.5217 1.99902 18.4653 1.86146 18.4653 1.71802L18.4653 0ZM23.7492 5.98022C23.6608 5.98058 23.5738 6.00303 23.496 6.04558C23.4182 6.08812 23.352 6.14944 23.3033 6.22409C23.2545 6.29875 23.2248 6.38441 23.2167 6.47349C23.2086 6.56256 23.2223 6.65228 23.2568 6.73468C23.2677 6.76957 23.2763 6.80517 23.2826 6.84124C23.2901 6.88819 23.2939 6.93568 23.2939 6.98324C23.2919 7.19723 23.2064 7.40176 23.0561 7.55236C22.9058 7.70296 22.7027 7.78745 22.4911 7.78745C22.2796 7.78745 22.0765 7.70296 21.9262 7.55236C21.7759 7.40176 21.6904 7.19723 21.6884 6.98324C21.6887 6.93564 21.6929 6.88815 21.7008 6.84124C21.7083 6.79502 21.7199 6.74958 21.7354 6.70545C21.7593 6.63884 21.7701 6.56811 21.767 6.4973C21.7639 6.4265 21.747 6.357 21.7174 6.29279C21.6877 6.22859 21.6458 6.17093 21.594 6.12313C21.5423 6.07532 21.4817 6.03831 21.4158 6.0142C21.3573 5.99294 21.2957 5.98199 21.2336 5.98183V5.98022H19.5348V4.88277C20.0176 4.86241 20.474 4.6541 20.8085 4.30139C21.143 3.94867 21.3298 3.47885 21.3298 2.99011C21.3298 2.50137 21.143 2.03155 20.8085 1.67883C20.474 1.32612 20.0176 1.11781 19.5348 1.09745V0H25.4484C25.4401 2.00254 25.4401 3.99207 25.4417 5.98022H23.7492ZM25.443 7.06188H24.3625C24.3429 7.55037 24.1371 8.01223 23.7884 8.35081C23.4397 8.6894 22.9751 8.87847 22.4917 8.87847C22.0083 8.87847 21.5436 8.6894 21.1949 8.35081C20.8462 8.01223 20.6404 7.55037 20.6208 7.06188H19.5348V8.7802H19.5338C19.5338 8.8669 19.5131 8.95234 19.4736 9.02927C19.434 9.1062 19.3768 9.17236 19.3066 9.22215C19.2364 9.27194 19.1554 9.30389 19.0704 9.3153C18.9854 9.32671 18.8989 9.31724 18.8183 9.2877C18.7745 9.27219 18.7294 9.26048 18.6836 9.25269C18.574 9.23307 18.4615 9.23673 18.3533 9.26344C18.2451 9.29016 18.1436 9.33934 18.0553 9.40787C17.9669 9.4764 17.8936 9.56277 17.84 9.6615C17.7865 9.76023 17.7538 9.86915 17.7441 9.98134C17.7344 10.0935 17.7478 10.2065 17.7837 10.3132C17.8195 10.4198 17.8768 10.5177 17.9521 10.6008C18.0273 10.6838 18.1188 10.75 18.2208 10.7953C18.3227 10.8406 18.4329 10.864 18.5442 10.8639C18.591 10.8643 18.6376 10.8603 18.6836 10.8519C18.7194 10.8459 18.7547 10.8376 18.7894 10.8269C18.8561 10.7986 18.9277 10.7838 19.0001 10.7835C19.0704 10.7835 19.1399 10.7975 19.2049 10.8248C19.2698 10.852 19.3288 10.8919 19.3784 10.9422C19.4281 10.9924 19.4675 11.0521 19.4943 11.1178C19.5211 11.1835 19.5349 11.2539 19.5348 11.325V13.0425H25.4485C25.4485 10.4236 25.4469 9.63939 25.4464 8.86037L25.443 7.06188Z" data-figma-gradient-fill="{&#34;type&#34;:&#34;GRADIENT_DIAMOND&#34;,&#34;stops&#34;:[{&#34;color&#34;:{&#34;r&#34;:1.0,&#34;g&#34;:0.95686274766921997,&#34;b&#34;:0.30980393290519714,&#34;a&#34;:1.0},&#34;position&#34;:0.0},{&#34;color&#34;:{&#34;r&#34;:1.0,&#34;g&#34;:0.60000002384185791,&#34;b&#34;:0.0,&#34;a&#34;:1.0},&#34;position&#34;:1.0}],&#34;stopsVar&#34;:[{&#34;color&#34;:{&#34;r&#34;:1.0,&#34;g&#34;:0.95686274766921997,&#34;b&#34;:0.30980393290519714,&#34;a&#34;:1.0},&#34;position&#34;:0.0},{&#34;color&#34;:{&#34;r&#34;:1.0,&#34;g&#34;:0.60000002384185791,&#34;b&#34;:0.0,&#34;a&#34;:1.0},&#34;position&#34;:1.0}],&#34;transform&#34;:{&#34;m00&#34;:2.2655967169872299e-15,&#34;m01&#34;:-37.0,&#34;m02&#34;:37.50,&#34;m10&#34;:36.0,&#34;m11&#34;:2.2043642817137429e-15,&#34;m12&#34;:-2.2043642817137429e-15},&#34;opacity&#34;:1.0,&#34;blendMode&#34;:&#34;NORMAL&#34;,&#34;visible&#34;:true}"/>
</g>
<defs>
<clipPath id="paint0_diamond_2119_974_clip_path"><path fill-rule="evenodd" clip-rule="evenodd" d="M9.23555 18.5605C8.68345 18.0018 7.95688 17.654 7.17966 17.5764C6.40243 17.4987 5.62264 17.6961 4.97314 18.1347C4.32364 18.5734 3.84462 19.2262 3.61771 19.982C3.39079 20.7378 3.43002 21.5498 3.72871 22.2797C4.0274 23.0095 4.56707 23.612 5.25576 23.9845C5.94445 24.3571 6.73956 24.4765 7.50559 24.3226C8.27163 24.1687 8.96121 23.751 9.45682 23.1405C9.95244 22.5301 10.2234 21.7647 10.2236 20.9748C10.2245 20.5264 10.1377 20.0822 9.9681 19.6678C9.79852 19.2535 9.54956 18.8772 9.23555 18.5606V18.5605ZM33.5357 18.5605C32.9837 18.0027 32.2576 17.6557 31.4809 17.5786C30.7043 17.5016 29.9253 17.6992 29.2766 18.1378C28.6279 18.5764 28.1497 19.229 27.9233 19.9842C27.6969 20.7395 27.7364 21.5508 28.0351 22.2798C28.3338 23.0089 28.8732 23.6108 29.5614 23.9828C30.2496 24.3548 31.044 24.474 31.8094 24.3201C32.5747 24.1662 33.2636 23.7487 33.7588 23.1387C34.2539 22.5287 34.5246 21.764 34.5248 20.9748C34.5255 20.5263 34.4385 20.0821 34.2687 19.6678C34.099 19.2534 33.8499 18.8771 33.5357 18.5606V18.5605ZM11.1296 30.8645V30.3127C11.1204 29.6347 11.32 28.9705 11.7006 28.4123C12.0813 27.8541 12.6242 27.4294 13.2542 27.1972L17.8293 25.4414C18.2026 25.2943 18.5994 25.2175 19 25.2149V25.2138C19.4006 25.2166 19.7973 25.2938 20.1703 25.4414L24.745 27.1972C25.3751 27.4293 25.9181 27.8539 26.2988 28.4121C26.6795 28.9704 26.879 29.6346 26.8696 30.3127V35.2659C26.8688 35.4603 26.7922 35.6465 26.6563 35.7839C26.5205 35.9214 26.3365 35.9991 26.1443 36H11.8559C11.6637 35.9988 11.4797 35.9211 11.3438 35.7837C11.2078 35.6463 11.1309 35.4603 11.1296 35.2659V30.8645ZM26.4409 26.9732C26.7204 27.2155 26.968 27.493 27.1776 27.7991C27.6788 28.5392 27.9448 29.4162 27.9401 30.3132V33.9815H37.0018C37.1338 33.9809 37.2601 33.9275 37.3534 33.833C37.4467 33.7386 37.4993 33.6107 37.4997 33.4772V29.4194C37.5073 28.884 37.3499 28.3594 37.0493 27.9186C36.7488 27.4777 36.32 27.1424 35.8225 26.9592L32.0756 25.5213C31.7805 25.4043 31.4668 25.3429 31.1499 25.3401V25.3427C30.8334 25.3447 30.5199 25.4053 30.2249 25.5213L26.478 26.9592L26.4409 26.9732ZM11.5591 26.9732L11.522 26.9592L7.77508 25.5213C7.48023 25.4044 7.16676 25.3431 6.85009 25.3401V25.3427C6.53337 25.3447 6.21967 25.4052 5.92446 25.5213L2.17754 26.9592C1.67989 27.1422 1.25096 27.4774 0.950376 27.9183C0.649789 28.3592 0.492468 28.8839 0.500277 29.4194V33.4772C0.500221 33.5432 0.513098 33.6085 0.538166 33.6695C0.563234 33.7304 0.599995 33.7857 0.646324 33.8322C0.739408 33.9269 0.865843 33.9804 0.997891 33.981H10.0599V30.3127C10.0547 29.4156 10.3208 28.5384 10.8224 27.7986C11.0317 27.4923 11.2793 27.2147 11.5591 26.9727L11.5591 26.9732ZM21.9961 16.7978C21.3029 16.0963 20.3906 15.6596 19.4147 15.5622C18.4388 15.4647 17.4597 15.7126 16.6443 16.2634C15.8288 16.8142 15.2274 17.634 14.9426 18.5831C14.6578 19.5321 14.7072 20.5516 15.0824 21.4679C15.4576 22.3843 16.1354 23.1406 17.0002 23.6082C17.8651 24.0757 18.8634 24.2255 19.8252 24.032C20.787 23.8385 21.6527 23.3137 22.2747 22.547C22.8968 21.7803 23.2367 20.8191 23.2366 19.8274C23.2373 19.2647 23.128 18.7074 22.9152 18.1875C22.7023 17.6677 22.3899 17.1955 21.9961 16.798V16.7978ZM18.4653 7.06203V8.15955C17.9823 8.17969 17.5257 8.3879 17.191 8.74063C16.8563 9.09336 16.6695 9.5633 16.6695 10.0522C16.6695 10.541 16.8563 11.011 17.191 11.3637C17.5257 11.7164 17.9823 11.9247 18.4653 11.9448V13.0428H12.5518V7.06203H14.2509V7.06101C14.3366 7.06105 14.4211 7.04016 14.4972 7.00011C14.5733 6.96005 14.6387 6.90202 14.6878 6.83093C14.737 6.75985 14.7684 6.67781 14.7795 6.5918C14.7906 6.50579 14.781 6.41834 14.7516 6.33688C14.7361 6.29276 14.7248 6.2473 14.7175 6.20108C14.7096 6.15451 14.7054 6.10736 14.7051 6.0601C14.7041 5.9528 14.7241 5.84636 14.764 5.74693C14.8039 5.6475 14.8629 5.55705 14.9376 5.48082C15.0123 5.40458 15.1011 5.34406 15.1991 5.30276C15.297 5.26146 15.402 5.2402 15.5081 5.2402C15.6143 5.2402 15.7193 5.26146 15.8172 5.30276C15.9152 5.34406 16.004 5.40458 16.0787 5.48082C16.1534 5.55705 16.2124 5.6475 16.2523 5.74693C16.2922 5.84636 16.3122 5.9528 16.3112 6.0601C16.311 6.10734 16.3071 6.15449 16.2993 6.20108C16.2921 6.23974 16.2843 6.27578 16.2751 6.30764C16.2455 6.37522 16.2304 6.44833 16.2306 6.52222C16.2309 6.66559 16.2874 6.80299 16.3878 6.90422C16.4882 7.00544 16.6243 7.0622 16.766 7.06203H18.4653ZM18.4653 0H12.5518V5.98022H13.637C13.6569 5.49182 13.8628 5.03012 14.2115 4.69167C14.5603 4.35322 15.0249 4.16423 15.5082 4.16423C15.9915 4.16423 16.4561 4.35322 16.8048 4.69167C17.1536 5.03012 17.3594 5.49182 17.3793 5.98022H18.4653V4.26271H18.4663C18.4665 4.17602 18.4873 4.09065 18.5269 4.01379C18.5666 3.93694 18.6239 3.87085 18.6941 3.8211C18.7643 3.77134 18.8453 3.73939 18.9303 3.72792C19.0152 3.71645 19.1017 3.72581 19.1823 3.7552C19.226 3.77119 19.2711 3.78291 19.317 3.79021C19.3631 3.79792 19.4097 3.80176 19.4564 3.80169C19.6693 3.80169 19.8734 3.71618 20.0239 3.56397C20.1744 3.41176 20.2589 3.20533 20.2589 2.99007C20.2589 2.77482 20.1744 2.56838 20.0239 2.41617C19.8734 2.26397 19.6693 2.17846 19.4564 2.17846C19.4097 2.17855 19.3631 2.18256 19.317 2.19044C19.2814 2.19672 19.246 2.20492 19.2112 2.215C19.1446 2.24422 19.0727 2.25916 19.0001 2.25885C18.8583 2.25885 18.7222 2.20187 18.622 2.10045C18.5217 1.99902 18.4653 1.86146 18.4653 1.71802L18.4653 0ZM23.7492 5.98022C23.6608 5.98058 23.5738 6.00303 23.496 6.04558C23.4182 6.08812 23.352 6.14944 23.3033 6.22409C23.2545 6.29875 23.2248 6.38441 23.2167 6.47349C23.2086 6.56256 23.2223 6.65228 23.2568 6.73468C23.2677 6.76957 23.2763 6.80517 23.2826 6.84124C23.2901 6.88819 23.2939 6.93568 23.2939 6.98324C23.2919 7.19723 23.2064 7.40176 23.0561 7.55236C22.9058 7.70296 22.7027 7.78745 22.4911 7.78745C22.2796 7.78745 22.0765 7.70296 21.9262 7.55236C21.7759 7.40176 21.6904 7.19723 21.6884 6.98324C21.6887 6.93564 21.6929 6.88815 21.7008 6.84124C21.7083 6.79502 21.7199 6.74958 21.7354 6.70545C21.7593 6.63884 21.7701 6.56811 21.767 6.4973C21.7639 6.4265 21.747 6.357 21.7174 6.29279C21.6877 6.22859 21.6458 6.17093 21.594 6.12313C21.5423 6.07532 21.4817 6.03831 21.4158 6.0142C21.3573 5.99294 21.2957 5.98199 21.2336 5.98183V5.98022H19.5348V4.88277C20.0176 4.86241 20.474 4.6541 20.8085 4.30139C21.143 3.94867 21.3298 3.47885 21.3298 2.99011C21.3298 2.50137 21.143 2.03155 20.8085 1.67883C20.474 1.32612 20.0176 1.11781 19.5348 1.09745V0H25.4484C25.4401 2.00254 25.4401 3.99207 25.4417 5.98022H23.7492ZM25.443 7.06188H24.3625C24.3429 7.55037 24.1371 8.01223 23.7884 8.35081C23.4397 8.6894 22.9751 8.87847 22.4917 8.87847C22.0083 8.87847 21.5436 8.6894 21.1949 8.35081C20.8462 8.01223 20.6404 7.55037 20.6208 7.06188H19.5348V8.7802H19.5338C19.5338 8.8669 19.5131 8.95234 19.4736 9.02927C19.434 9.1062 19.3768 9.17236 19.3066 9.22215C19.2364 9.27194 19.1554 9.30389 19.0704 9.3153C18.9854 9.32671 18.8989 9.31724 18.8183 9.2877C18.7745 9.27219 18.7294 9.26048 18.6836 9.25269C18.574 9.23307 18.4615 9.23673 18.3533 9.26344C18.2451 9.29016 18.1436 9.33934 18.0553 9.40787C17.9669 9.4764 17.8936 9.56277 17.84 9.6615C17.7865 9.76023 17.7538 9.86915 17.7441 9.98134C17.7344 10.0935 17.7478 10.2065 17.7837 10.3132C17.8195 10.4198 17.8768 10.5177 17.9521 10.6008C18.0273 10.6838 18.1188 10.75 18.2208 10.7953C18.3227 10.8406 18.4329 10.864 18.5442 10.8639C18.591 10.8643 18.6376 10.8603 18.6836 10.8519C18.7194 10.8459 18.7547 10.8376 18.7894 10.8269C18.8561 10.7986 18.9277 10.7838 19.0001 10.7835C19.0704 10.7835 19.1399 10.7975 19.2049 10.8248C19.2698 10.852 19.3288 10.8919 19.3784 10.9422C19.4281 10.9924 19.4675 11.0521 19.4943 11.1178C19.5211 11.1835 19.5349 11.2539 19.5348 11.325V13.0425H25.4485C25.4485 10.4236 25.4469 9.63939 25.4464 8.86037L25.443 7.06188Z"/></clipPath><linearGradient id="paint0_diamond_2119_974" x1="0" y1="0" x2="500" y2="500" gradientUnits="userSpaceOnUse">
<stop stop-color="#FFF44F"/>
<stop offset="1" stop-color="#FF9900"/>
</linearGradient>
<clipPath id="clip0_2119_974">
<rect width="38" height="36" fill="white"/>
</clipPath>
</defs>
</svg>
