<svg width="15" height="17" viewBox="0 0 15 17" fill="none" xmlns="http://www.w3.org/2000/svg">
<path d="M14.4998 11.9945C14.5035 12.1635 14.4555 12.3291 14.3632 12.466C14.2722 12.6055 14.1408 12.7088 13.9894 12.7597L12.7603 13.2003C12.3813 13.3347 12.0367 13.5623 11.7539 13.865C11.4709 14.1678 11.259 14.5387 11.1357 14.947L10.7044 16.261C10.6595 16.4187 10.5688 16.5568 10.4457 16.6552C10.3146 16.7521 10.159 16.8033 10 16.802C9.84053 16.8094 9.68333 16.7594 9.55317 16.66C9.42302 16.5607 9.32733 16.4176 9.28119 16.2533L8.87146 14.9316C8.74817 14.5233 8.53627 14.1523 8.25328 13.8495C7.96779 13.5487 7.62421 13.3191 7.24693 13.1771L6.01776 12.7442C5.87243 12.689 5.7451 12.5897 5.65116 12.4583C5.55595 12.3192 5.50321 12.1517 5.50021 11.9791C5.49339 11.8076 5.53985 11.6385 5.63226 11.4986C5.72466 11.3587 5.85776 11.2558 6.01057 11.2061L7.24693 10.7656C7.63036 10.6324 7.97889 10.4031 8.26382 10.0968C8.54875 9.79038 8.76194 9.41563 8.88584 9.00335L9.29557 7.69712C9.33747 7.5364 9.42663 7.39458 9.54972 7.29288C9.67281 7.19117 9.82322 7.13505 9.97844 7.1329C10.133 7.1329 10.2847 7.1785 10.4169 7.26429C10.5477 7.36091 10.6484 7.49849 10.7044 7.65848L11.1214 9.00335C11.2453 9.41563 11.4585 9.79038 11.7434 10.0968C12.0283 10.4031 12.3768 10.6324 12.7603 10.7656L13.9823 11.2293C14.1309 11.2817 14.2596 11.3848 14.3489 11.523C14.4462 11.658 14.4993 11.8237 14.4998 11.9945ZM7.31235 7.07879C7.31125 7.23031 7.26875 7.37814 7.19015 7.50389C7.10518 7.62832 6.98751 7.72254 6.8523 7.77442L5.94659 8.09904C5.69285 8.19333 5.46283 8.34637 5.2709 8.54733C5.08291 8.75273 4.9404 9.00106 4.85399 9.27386L4.5449 10.2323C4.50158 10.3804 4.41291 10.5085 4.29331 10.5955C4.17514 10.6843 4.03489 10.7327 3.89077 10.7347C3.74343 10.732 3.60039 10.6808 3.48105 10.5878C3.36799 10.4953 3.28294 10.3689 3.23665 10.2245L2.94193 9.25841C2.85546 8.98791 2.71289 8.7421 2.52502 8.5396C2.34053 8.33244 2.1107 8.17831 1.85652 8.09131L0.957996 7.76669C0.818574 7.7195 0.697377 7.62447 0.612964 7.49617C0.555746 7.39981 0.519121 7.291 0.505727 7.17759C0.492333 7.06418 0.502503 6.94899 0.535506 6.84031C0.568508 6.73163 0.623521 6.63218 0.696579 6.54912C0.769636 6.46606 0.85892 6.40147 0.957996 6.35999L1.85652 6.04309C2.11076 5.94764 2.3417 5.79173 2.53212 5.58698C2.72254 5.38223 2.86754 5.13391 2.95631 4.86054L3.25103 3.90985C3.29339 3.76738 3.3733 3.64119 3.48105 3.54658C3.59555 3.45382 3.73323 3.39998 3.8764 3.392C4.02145 3.38781 4.16429 3.43092 4.28612 3.51567C4.40603 3.6027 4.49873 3.72662 4.55209 3.87121L4.85399 4.86054C4.94276 5.13391 5.08776 5.38223 5.27818 5.58698C5.4686 5.79173 5.69954 5.94764 5.95378 6.04309L6.8523 6.37544C6.98669 6.42508 7.10263 6.51993 7.18296 6.64596C7.26804 6.77164 7.31339 6.92335 7.31235 7.07879ZM11.4736 2.93598C11.4671 3.07691 11.4248 3.21323 11.3514 3.33017C11.2766 3.44039 11.1707 3.52171 11.0495 3.56204L10.6038 3.72435C10.5172 3.75648 10.4386 3.80936 10.3738 3.87899C10.3091 3.94862 10.2599 4.03318 10.23 4.12627L10.0719 4.6132C10.0285 4.73179 9.95656 4.83583 9.86343 4.91464C9.75746 5.00592 9.62542 5.05507 9.48965 5.05376C9.36529 5.04606 9.24448 5.0063 9.13743 4.93783C9.03062 4.85199 8.95044 4.73345 8.9074 4.59775L8.75645 4.11854C8.72987 4.0238 8.68023 3.93842 8.61269 3.87121C8.54932 3.79971 8.47021 3.74654 8.38267 3.71663L7.937 3.56204C7.81841 3.51232 7.71423 3.42964 7.6351 3.32244C7.55968 3.20704 7.51948 3.06929 7.52008 2.92826C7.52426 2.78687 7.56673 2.64987 7.64228 2.53407C7.7191 2.42607 7.82426 2.3453 7.94419 2.3022L8.38267 2.14761C8.4711 2.11491 8.55199 2.0622 8.61988 1.99303C8.6837 1.91963 8.73266 1.83278 8.76364 1.73797L8.91459 1.25876C8.95772 1.13896 9.02601 1.03307 9.11586 0.9496C9.21899 0.867758 9.3406 0.817055 9.46808 0.802746C9.60374 0.801911 9.73649 0.845002 9.84905 0.926412C9.95038 1.00838 10.0297 1.11771 10.0791 1.24331L10.23 1.73797C10.2611 1.83275 10.31 1.91959 10.3738 1.99303C10.4406 2.05979 10.5187 2.11225 10.6038 2.14761L11.0567 2.30992C11.1718 2.35865 11.2733 2.43852 11.3514 2.5418C11.4298 2.65603 11.4726 2.79401 11.4736 2.93598Z" fill="white"/>
</svg>
