<svg width="14" height="17" viewBox="0 0 14 17" fill="none" xmlns="http://www.w3.org/2000/svg">
<path d="M13.9998 11.6918C14.0035 11.8608 13.9555 12.0264 13.8632 12.1633C13.7722 12.3028 13.6408 12.4061 13.4894 12.457L12.2603 12.8975C11.8813 13.0319 11.5367 13.2595 11.2539 13.5622C10.9709 13.8651 10.759 14.236 10.6357 14.6443L10.2044 15.9583C10.1595 16.116 10.0688 16.2541 9.94567 16.3524C9.81462 16.4493 9.65905 16.5006 9.50001 16.4993C9.34053 16.5066 9.18333 16.4567 9.05317 16.3573C8.92302 16.2579 8.82733 16.1148 8.78119 15.9505L8.37146 14.6288C8.24817 14.2205 8.03627 13.8496 7.75328 13.5468C7.46779 13.2459 7.12421 13.0164 6.74693 12.8743L5.51776 12.4415C5.37243 12.3863 5.2451 12.2869 5.15116 12.1555C5.05595 12.0164 5.00321 11.849 5.00021 11.6763C4.99339 11.5048 5.03985 11.3358 5.13226 11.1959C5.22466 11.0559 5.35776 10.953 5.51057 10.9034L6.74693 10.4629C7.13036 10.3296 7.47889 10.1004 7.76382 9.79402C8.04875 9.48765 8.26194 9.1129 8.38584 8.70061L8.79557 7.39439C8.83747 7.23367 8.92663 7.09185 9.04972 6.99014C9.17281 6.88844 9.32322 6.83231 9.47844 6.83016C9.63299 6.83016 9.78466 6.87576 9.91692 6.96156C10.0477 7.05817 10.1484 7.19575 10.2044 7.35574L10.6214 8.70061C10.7453 9.1129 10.9585 9.48765 11.2434 9.79402C11.5283 10.1004 11.8768 10.3296 12.2603 10.4629L13.4823 10.9266C13.6309 10.979 13.7596 11.0821 13.8489 11.2203C13.9462 11.3552 13.9993 11.521 13.9998 11.6918ZM6.81235 6.77606C6.81125 6.92758 6.76875 7.0754 6.69015 7.20116C6.60518 7.32559 6.48751 7.41981 6.3523 7.47168L5.44659 7.7963C5.19285 7.8906 4.96283 8.04363 4.7709 8.24459C4.58291 8.44999 4.4404 8.69833 4.35399 8.97113L4.0449 9.92954C4.00158 10.0777 3.91291 10.2057 3.79331 10.2928C3.67514 10.3815 3.53489 10.43 3.39077 10.4319C3.24343 10.4293 3.10039 10.378 2.98105 10.2851C2.86799 10.1926 2.78294 10.0662 2.73665 9.92181L2.44193 8.95567C2.35546 8.68517 2.21289 8.43937 2.02502 8.23686C1.84053 8.02971 1.6107 7.87558 1.35652 7.78857L0.457996 7.46395C0.318574 7.41676 0.197377 7.32174 0.112964 7.19343C0.0557464 7.09707 0.0191211 6.98827 0.00572686 6.87486C-0.00766733 6.76145 0.00250329 6.64625 0.0355058 6.53757C0.0685082 6.4289 0.123521 6.32945 0.196579 6.24639C0.269636 6.16333 0.35892 6.09873 0.457996 6.05725L1.35652 5.74036C1.61076 5.6449 1.8417 5.48899 2.03212 5.28424C2.22254 5.07949 2.36754 4.83118 2.45631 4.5578L2.75103 3.60712C2.79339 3.46465 2.8733 3.33846 2.98105 3.24385C3.09555 3.15108 3.23323 3.09725 3.3764 3.08927C3.52145 3.08508 3.66429 3.12819 3.78612 3.21293C3.90603 3.29997 3.99873 3.42388 4.05209 3.56847L4.35399 4.5578C4.44276 4.83118 4.58776 5.07949 4.77818 5.28424C4.9686 5.48899 5.19954 5.6449 5.45378 5.74036L6.3523 6.07271C6.48669 6.12234 6.60263 6.2172 6.68296 6.34323C6.76804 6.46891 6.81339 6.62061 6.81235 6.77606ZM10.9736 2.63325C10.9671 2.77417 10.9248 2.9105 10.8514 3.02743C10.7766 3.13765 10.6707 3.21897 10.5495 3.25931L10.1038 3.42162C10.0172 3.45375 9.9386 3.50663 9.87384 3.57626C9.80908 3.64589 9.75991 3.73045 9.73003 3.82353L9.57189 4.31047C9.52851 4.42906 9.45656 4.5331 9.36343 4.61191C9.25746 4.70319 9.12542 4.75233 8.98965 4.75103C8.86529 4.74333 8.74448 4.70356 8.63743 4.63509C8.53062 4.54926 8.45044 4.43071 8.4074 4.29501L8.25645 3.81581C8.22987 3.72107 8.18023 3.63568 8.11269 3.56847C8.04932 3.49697 7.97021 3.44381 7.88267 3.41389L7.437 3.25931C7.31841 3.20959 7.21423 3.12691 7.1351 3.01971C7.05968 2.90431 7.01948 2.76656 7.02008 2.62552C7.02426 2.48414 7.06673 2.34714 7.14228 2.23134C7.2191 2.12334 7.32426 2.04257 7.44419 1.99946L7.88267 1.84488C7.9711 1.81218 8.05199 1.75946 8.11988 1.6903C8.1837 1.61689 8.23266 1.53004 8.26364 1.43524L8.41459 0.95603C8.45772 0.836229 8.52601 0.73034 8.61586 0.646865C8.71899 0.565023 8.8406 0.514321 8.96808 0.500012C9.10374 0.499177 9.23649 0.542268 9.34905 0.623678C9.45038 0.705646 9.52974 0.814975 9.57908 0.940572L9.73003 1.43524C9.76107 1.53001 9.81002 1.61685 9.87379 1.6903C9.94065 1.75705 10.0187 1.80952 10.1038 1.84488L10.5567 2.00719C10.6718 2.05591 10.7733 2.13578 10.8514 2.23906C10.9298 2.35329 10.9726 2.49128 10.9736 2.63325Z" fill="#FFF44F"/>
</svg>
