<svg width="24" height="24" viewBox="0 0 24 24" fill="none" xmlns="http://www.w3.org/2000/svg">
<path fill-rule="evenodd" clip-rule="evenodd" d="M13.9699 2.09043C14.2544 2.25037 14.3941 2.58536 14.3084 2.90225L12.4274 9.85715H19.2917C19.5737 9.85715 19.8289 10.0259 19.9413 10.2868C20.0537 10.5476 20.0019 10.8509 19.8095 11.0588L9.89283 21.7731C9.67058 22.0132 9.31459 22.0695 9.03008 21.9096C8.74558 21.7496 8.60593 21.4146 8.69163 21.0978L10.5726 14.1429H3.70835C3.42629 14.1429 3.17112 13.9741 3.0587 13.7132C2.94629 13.4524 2.99807 13.1491 3.19052 12.9412L13.1072 2.22694C13.3294 1.98681 13.6854 1.93049 13.9699 2.09043Z" fill="white"/>
</svg>
